<svg width="18" height="18" viewBox="0 0 18 18" fill="none" xmlns="http://www.w3.org/2000/svg">
<path d="M16.5625 0.0625H1.4375C1.07283 0.0625 0.723091 0.207366 0.465228 0.465228C0.207366 0.723091 0.0625 1.07283 0.0625 1.4375V16.5625C0.0625 16.9272 0.207366 17.2769 0.465228 17.5348C0.723091 17.7926 1.07283 17.9375 1.4375 17.9375H16.5625C16.9272 17.9375 17.2769 17.7926 17.5348 17.5348C17.7926 17.2769 17.9375 16.9272 17.9375 16.5625V1.4375C17.9375 1.07283 17.7926 0.723091 17.5348 0.465228C17.2769 0.207366 16.9272 0.0625 16.5625 0.0625ZM16.5625 16.5625H1.4375V1.4375H16.5625V16.5625ZM6.25 7.625V13.125C6.25 13.3073 6.17757 13.4822 6.04864 13.6111C5.9197 13.7401 5.74484 13.8125 5.5625 13.8125C5.38016 13.8125 5.2053 13.7401 5.07636 13.6111C4.94743 13.4822 4.875 13.3073 4.875 13.125V7.625C4.875 7.44266 4.94743 7.2678 5.07636 7.13886C5.2053 7.00993 5.38016 6.9375 5.5625 6.9375C5.74484 6.9375 5.9197 7.00993 6.04864 7.13886C6.17757 7.2678 6.25 7.44266 6.25 7.625ZM13.8125 10.0312V13.125C13.8125 13.3073 13.7401 13.4822 13.6111 13.6111C13.4822 13.7401 13.3073 13.8125 13.125 13.8125C12.9427 13.8125 12.7678 13.7401 12.6389 13.6111C12.5099 13.4822 12.4375 13.3073 12.4375 13.125V10.0312C12.4375 9.57541 12.2564 9.13824 11.9341 8.81591C11.6118 8.49358 11.1746 8.3125 10.7188 8.3125C10.2629 8.3125 9.82574 8.49358 9.50341 8.81591C9.18108 9.13824 9 9.57541 9 10.0312V13.125C9 13.3073 8.92757 13.4822 8.79864 13.6111C8.6697 13.7401 8.49484 13.8125 8.3125 13.8125C8.13016 13.8125 7.9553 13.7401 7.82636 13.6111C7.69743 13.4822 7.625 13.3073 7.625 13.125V7.625C7.62585 7.4566 7.68848 7.29437 7.80101 7.16909C7.91354 7.0438 8.06814 6.96417 8.23548 6.94531C8.40282 6.92645 8.57126 6.96966 8.70886 7.06675C8.84646 7.16383 8.94363 7.30805 8.98195 7.47203C9.44704 7.15653 9.98927 6.97368 10.5504 6.9431C11.1116 6.91253 11.6705 7.03539 12.1671 7.29849C12.6637 7.56159 13.0793 7.955 13.3692 8.43646C13.659 8.91792 13.8123 9.46925 13.8125 10.0312ZM6.59375 5.21875C6.59375 5.42271 6.53327 5.62209 6.41995 5.79168C6.30664 5.96127 6.14558 6.09345 5.95714 6.1715C5.76871 6.24955 5.56136 6.26998 5.36131 6.23019C5.16127 6.19039 4.97752 6.09218 4.8333 5.94795C4.68907 5.80373 4.59086 5.61998 4.55106 5.41994C4.51127 5.21989 4.5317 5.01254 4.60975 4.82411C4.6878 4.63567 4.81998 4.47461 4.98957 4.3613C5.15916 4.24798 5.35854 4.1875 5.5625 4.1875C5.836 4.1875 6.09831 4.29615 6.2917 4.48955C6.4851 4.68294 6.59375 4.94525 6.59375 5.21875Z" fill="#FFEFC6"/>
</svg>
