<svg width="20" height="17" viewBox="0 0 20 17" fill="none" xmlns="http://www.w3.org/2000/svg">
<path d="M19.2601 2.92463C19.2081 2.799 19.12 2.69161 19.007 2.61604C18.8939 2.54048 18.761 2.50013 18.6251 2.5001H16.01C15.6444 1.87807 15.124 1.36122 14.4995 0.99981C13.875 0.638398 13.1676 0.444719 12.4462 0.437603C11.9086 0.430552 11.3751 0.53108 10.877 0.733271C10.3789 0.935463 9.92629 1.23523 9.54576 1.61495C9.15412 1.99928 8.84327 2.45803 8.63149 2.96424C8.41971 3.47045 8.31128 4.01388 8.31256 4.5626V5.08596C4.85272 4.17331 2.02279 1.35885 1.99272 1.32877C1.90048 1.23572 1.78358 1.17096 1.65577 1.14212C1.52796 1.11329 1.39458 1.12157 1.27132 1.16599C1.14806 1.21042 1.04007 1.28914 0.960051 1.39289C0.880034 1.49664 0.831329 1.62109 0.81967 1.75159C0.449279 5.85854 1.64209 8.60682 2.71029 10.1889C3.23114 10.971 3.86476 11.6718 4.59061 12.2686C3.28178 13.7751 1.221 14.5666 1.19865 14.5752C1.10164 14.6115 1.0141 14.6693 0.942557 14.7442C0.871018 14.8192 0.817334 14.9093 0.785519 15.0079C0.753704 15.1064 0.744579 15.2109 0.758826 15.3136C0.773073 15.4162 0.810324 15.5142 0.867795 15.6004C0.932248 15.6967 1.19006 16.0344 1.81998 16.3498C2.59858 16.7399 3.62725 16.9376 4.87506 16.9376C10.9483 16.9376 16.0229 12.2609 16.5411 6.24354L19.1115 3.67401C19.2076 3.57781 19.273 3.45526 19.2995 3.32187C19.3259 3.18848 19.3122 3.05024 19.2601 2.92463ZM15.393 5.45206C15.2751 5.57021 15.2042 5.72722 15.1936 5.89377C14.8438 11.3156 10.3132 15.5626 4.87506 15.5626C3.96756 15.5626 3.32819 15.4423 2.87959 15.2979C3.86873 14.7608 5.24803 13.837 6.1349 12.5067C6.18696 12.4284 6.22242 12.3404 6.23911 12.2479C6.2558 12.1554 6.25336 12.0605 6.23194 11.9691C6.21052 11.8776 6.17057 11.7914 6.11456 11.716C6.05856 11.6406 5.98768 11.5774 5.90631 11.5304C5.86592 11.5072 2.13279 9.26682 2.12506 3.28042C3.50006 4.3976 6.01373 6.13096 8.88576 6.61393C8.98419 6.63053 9.08506 6.62549 9.18135 6.59917C9.27764 6.57285 9.36704 6.52587 9.44334 6.46151C9.51964 6.39715 9.58101 6.31694 9.62319 6.22647C9.66536 6.136 9.68733 6.03742 9.68756 5.9376V4.5626C9.68679 4.19586 9.75938 3.83268 9.90106 3.49441C10.0427 3.15614 10.2507 2.84963 10.5126 2.59292C10.7636 2.34137 11.0626 2.14272 11.3917 2.00869C11.7209 1.87467 12.0736 1.80799 12.429 1.8126C13.5169 1.82635 14.5336 2.48979 14.959 3.46346C15.0126 3.58588 15.1007 3.69001 15.2126 3.76312C15.3245 3.83622 15.4552 3.87514 15.5889 3.8751H16.9639L15.393 5.45206Z" fill="#FFEFC6"/>
</svg>
