<svg width="32" height="32" viewBox="0 0 32 32" fill="none" xmlns="http://www.w3.org/2000/svg">
<g clip-path="url(#clip0_1_1991)">
<path d="M23.1576 27.0524C23.1543 25.6706 23.9518 22.2267 26.1599 18.4021C27.486 16.1053 27.8454 13.3757 27.159 10.814C26.4725 8.25216 24.7965 6.06797 22.4997 4.74189C20.2029 3.41581 17.4733 3.05646 14.9115 3.74289C12.3497 4.42932 10.1655 6.1053 8.83944 8.40214C6.63069 12.2278 4.04652 14.6387 2.84821 15.3268C2.54288 15.5013 2.28897 15.7532 2.11209 16.0572C1.9352 16.3611 1.84159 16.7064 1.8407 17.0581C1.83981 17.4097 1.93167 17.7554 2.10702 18.0603C2.28236 18.3652 2.535 18.6184 2.83944 18.7944L7.25725 21.3451C6.89258 22.4381 6.91664 23.6236 7.32535 24.701C7.73407 25.7783 8.50235 26.6814 9.50025 27.2576C10.4982 27.8337 11.6644 28.0475 12.8018 27.8628C13.9392 27.6781 14.9779 27.1062 15.7421 26.2438L20.1599 28.7944C20.4647 28.9698 20.8102 29.0618 21.1618 29.061C21.5134 29.0603 21.8586 28.9669 22.1625 28.7903C22.4665 28.6136 22.7185 28.3599 22.8932 28.0548C23.0679 27.7497 23.1591 27.404 23.1576 27.0524ZM10.4997 25.5265C9.96266 25.2162 9.53499 24.7471 9.27556 24.1838C9.01612 23.6204 8.93767 22.9905 9.05101 22.3807L13.9484 25.2082C13.477 25.6112 12.8922 25.8583 12.2746 25.9153C11.657 25.9723 11.0369 25.8364 10.4997 25.5265ZM3.83944 17.0624C5.50049 16.1104 8.31649 13.3079 10.5715 9.40214C11.6324 7.56467 13.3797 6.22388 15.4291 5.67474C17.4786 5.12559 19.6622 5.41308 21.4997 6.47394C23.3372 7.53481 24.678 9.28216 25.2271 11.3316C25.7762 13.381 25.4888 15.5647 24.4279 17.4021C22.1748 21.3047 21.1536 25.1434 21.1599 27.0624L3.83944 17.0624Z" fill="#2B2B2B"/>
</g>
<defs>
<clipPath id="clip0_1_1991">
<rect width="32" height="32" fill="white"/>
</clipPath>
</defs>
</svg>
