<svg width="32" height="32" viewBox="0 0 32 32" fill="none" xmlns="http://www.w3.org/2000/svg">
<path d="M26.7074 16.7075L16.7074 26.7075C16.6145 26.8004 16.5042 26.8741 16.3828 26.9244C16.2614 26.9747 16.1313 27.0005 15.9999 27.0005C15.8686 27.0005 15.7384 26.9747 15.617 26.9244C15.4957 26.8741 15.3854 26.8004 15.2924 26.7075C15.1995 26.6146 15.1258 26.5043 15.0756 26.3829C15.0253 26.2615 14.9994 26.1314 14.9994 26C14.9994 25.8686 15.0253 25.7385 15.0756 25.6171C15.1258 25.4957 15.1995 25.3854 15.2924 25.2925L25.2924 15.2925C25.3854 15.1996 25.4957 15.1259 25.6171 15.0756C25.7384 15.0253 25.8686 14.9994 25.9999 14.9994C26.1313 14.9994 26.2614 15.0253 26.3828 15.0756C26.5042 15.1259 26.6145 15.1996 26.7074 15.2925C26.8004 15.3854 26.8741 15.4957 26.9243 15.6171C26.9746 15.7385 27.0005 15.8686 27.0005 16C27.0005 16.1314 26.9746 16.2615 26.9243 16.3829C26.8741 16.5043 26.8004 16.6146 26.7074 16.7075ZM24.7074 4.29249C24.6146 4.19952 24.5043 4.12576 24.3829 4.07543C24.2615 4.02511 24.1314 3.99921 23.9999 3.99921C23.8685 3.99921 23.7384 4.02511 23.617 4.07543C23.4956 4.12576 23.3853 4.19952 23.2924 4.29249L4.29245 23.2925C4.1048 23.4801 3.99939 23.7346 3.99939 24C3.99939 24.2654 4.1048 24.5199 4.29245 24.7075C4.48009 24.8951 4.73458 25.0005 4.99995 25.0005C5.26531 25.0005 5.5198 24.8951 5.70745 24.7075L24.7074 5.70749C24.8004 5.61462 24.8742 5.50433 24.9245 5.38293C24.9748 5.26154 25.0007 5.13141 25.0007 4.99999C25.0007 4.86858 24.9748 4.73845 24.9245 4.61705C24.8742 4.49565 24.8004 4.38537 24.7074 4.29249Z" fill="#2B2B2B"/>
</svg>
