<svg width="24" height="24" viewBox="0 0 24 24" fill="none" xmlns="http://www.w3.org/2000/svg">
<path d="M22.8575 18.515C22.7899 18.628 22.7007 18.7265 22.5949 18.8049C22.4891 18.8833 22.3689 18.94 22.2412 18.9718C22.1134 19.0036 21.9806 19.0099 21.8505 18.9903C21.7203 18.9707 21.5952 18.9256 21.4825 18.8575L13 13.7663V23C13 23.2652 12.8947 23.5196 12.7071 23.7071C12.5196 23.8946 12.2652 24 12 24C11.7348 24 11.4805 23.8946 11.2929 23.7071C11.1054 23.5196 11 23.2652 11 23V13.7663L2.51503 18.8575C2.40238 18.9267 2.27712 18.9729 2.1465 18.9934C2.01589 19.0139 1.88251 19.0082 1.75408 18.9768C1.62565 18.9454 1.50472 18.8889 1.39829 18.8104C1.29186 18.732 1.20204 18.6332 1.13403 18.5198C1.06602 18.4065 1.02117 18.2807 1.00207 18.1499C0.982967 18.0191 0.99 17.8858 1.02276 17.7577C1.05552 17.6296 1.11335 17.5093 1.19291 17.4037C1.27248 17.2981 1.37219 17.2093 1.48628 17.1425L10.0563 12L1.48628 6.8575C1.37219 6.79069 1.27248 6.70193 1.19291 6.59633C1.11335 6.49074 1.05552 6.37042 1.02276 6.24233C0.99 6.11424 0.982967 5.98092 1.00207 5.85009C1.02117 5.71927 1.06602 5.59353 1.13403 5.48015C1.20204 5.36677 1.29186 5.268 1.39829 5.18956C1.50472 5.11112 1.62565 5.05457 1.75408 5.02317C1.88251 4.99177 2.01589 4.98614 2.1465 5.00663C2.27712 5.02711 2.40238 5.07329 2.51503 5.1425L11 10.2338V1C11 0.734784 11.1054 0.48043 11.2929 0.292893C11.4805 0.105357 11.7348 0 12 0C12.2652 0 12.5196 0.105357 12.7071 0.292893C12.8947 0.48043 13 0.734784 13 1V10.2338L21.485 5.1425C21.5977 5.07329 21.7229 5.02711 21.8536 5.00663C21.9842 4.98614 22.1176 4.99177 22.246 5.02317C22.3744 5.05457 22.4953 5.11112 22.6018 5.18956C22.7082 5.268 22.798 5.36677 22.866 5.48015C22.934 5.59353 22.9789 5.71927 22.998 5.85009C23.0171 5.98092 23.0101 6.11424 22.9773 6.24233C22.9445 6.37042 22.8867 6.49074 22.8071 6.59633C22.7276 6.70193 22.6279 6.79069 22.5138 6.8575L13.9438 12L22.5138 17.1425C22.6265 17.21 22.7248 17.2991 22.8031 17.4046C22.8814 17.5101 22.9382 17.63 22.9701 17.7575C23.002 17.885 23.0085 18.0175 22.9892 18.1475C22.9699 18.2774 22.9251 18.4023 22.8575 18.515Z" fill="#2B2B2B"/>
</svg>
