<svg width="32" height="32" viewBox="0 0 32 32" fill="none" xmlns="http://www.w3.org/2000/svg">
<path d="M4.4325 10.8324L26.44 4.08244C26.7379 3.99556 27.0519 3.97918 27.3572 4.03459C27.6624 4.09 27.9507 4.21568 28.199 4.40169C28.4473 4.5877 28.649 4.82895 28.788 5.10634C28.927 5.38373 28.9996 5.68966 29 5.99994V23.9999C29 24.5304 28.7893 25.0391 28.4142 25.4142C28.0391 25.7892 27.5304 25.9999 27 25.9999C26.8088 26 26.6185 25.9727 26.435 25.9187L16 22.7162V23.9999C16 24.5304 15.7893 25.0391 15.4142 25.4142C15.0391 25.7892 14.5304 25.9999 14 25.9999H10C9.46957 25.9999 8.96086 25.7892 8.58579 25.4142C8.21071 25.0391 8 24.5304 8 23.9999V20.2624L4.4325 19.1687C4.01961 19.0446 3.65751 18.7912 3.39959 18.4457C3.14168 18.1003 3.00159 17.6811 3 17.2499V12.7499C3.00186 12.319 3.14207 11.9001 3.39997 11.5549C3.65786 11.2097 4.01982 10.9564 4.4325 10.8324ZM16 20.6249L27 23.9999V5.99994L16 9.37494V20.6249ZM10 23.9999H14V22.1024L10 20.8749V23.9999ZM5 17.2499H5.01375L14 20.0099V9.98994L5.01375 12.7399H5V17.2399V17.2499Z" fill="#2B2B2B"/>
</svg>
