<svg width="32" height="32" viewBox="0 0 32 32" fill="none" xmlns="http://www.w3.org/2000/svg">
<path d="M27.6688 13.0138C27.4072 13.0575 27.1738 13.2034 27.0197 13.4193C26.8657 13.6352 26.8038 13.9034 26.8475 14.165C26.9491 14.7714 27.0001 15.3852 27 16C27.0024 18.6928 26.0127 21.292 24.22 23.3013C23.1047 21.6851 21.5365 20.4348 19.7125 19.7075C20.6923 18.9358 21.4072 17.878 21.7579 16.6811C22.1086 15.4843 22.0777 14.2079 21.6693 13.0294C21.2609 11.851 20.4955 10.8291 19.4795 10.1059C18.4634 9.38263 17.2472 8.99399 16 8.99399C14.7529 8.99399 13.5367 9.38263 12.5206 10.1059C11.5046 10.8291 10.7391 11.851 10.3308 13.0294C9.92241 14.2079 9.89143 15.4843 10.2421 16.6811C10.5928 17.878 11.3078 18.9358 12.2875 19.7075C10.4636 20.4348 8.89532 21.6851 7.78003 23.3013C6.37343 21.7162 5.45462 19.7586 5.13409 17.6638C4.81355 15.569 5.10494 13.4262 5.9732 11.4931C6.84147 9.55996 8.24965 7.91878 10.0284 6.7669C11.8072 5.61501 13.8809 5.00146 16 5.00001C16.6149 4.99992 17.2286 5.05093 17.835 5.15251C18.0954 5.1936 18.3615 5.13021 18.5754 4.97613C18.7893 4.82204 18.9337 4.58974 18.9772 4.32974C19.0207 4.06974 18.9598 3.80309 18.8077 3.58778C18.6556 3.37247 18.4246 3.22592 18.165 3.18001C15.4493 2.72316 12.6587 3.14118 10.1961 4.37373C7.73344 5.60628 5.72624 7.58958 4.46426 10.0373C3.20229 12.4849 2.75085 15.2704 3.17513 17.9913C3.59941 20.7123 4.87744 23.2281 6.82472 25.1753C8.77199 27.1226 11.2877 28.4006 14.0087 28.8249C16.7297 29.2492 19.5151 28.7978 21.9628 27.5358C24.4105 26.2738 26.3938 24.2666 27.6263 21.804C28.8589 19.3413 29.2769 16.5507 28.82 13.835C28.7763 13.5735 28.6304 13.34 28.4145 13.186C28.1986 13.032 27.9304 12.97 27.6688 13.0138ZM12 15C12 14.2089 12.2346 13.4355 12.6742 12.7777C13.1137 12.1199 13.7384 11.6072 14.4693 11.3045C15.2002 11.0017 16.0045 10.9225 16.7804 11.0769C17.5563 11.2312 18.269 11.6122 18.8285 12.1716C19.3879 12.731 19.7688 13.4437 19.9232 14.2197C20.0775 14.9956 19.9983 15.7998 19.6956 16.5307C19.3928 17.2617 18.8801 17.8864 18.2223 18.3259C17.5645 18.7654 16.7912 19 16 19C14.9392 19 13.9218 18.5786 13.1716 17.8284C12.4215 17.0783 12 16.0609 12 15ZM9.26003 24.6875C9.98345 23.5561 10.98 22.625 12.1579 21.9801C13.3358 21.3351 14.6571 20.9971 16 20.9971C17.3429 20.9971 18.6642 21.3351 19.8421 21.9801C21.02 22.625 22.0166 23.5561 22.74 24.6875C20.813 26.1862 18.4413 26.9999 16 26.9999C13.5588 26.9999 11.1871 26.1862 9.26003 24.6875Z" fill="#2B2B2B"/>
<path d="M25.8441 10.4987C25.8441 10.7067 25.7681 10.8827 25.6161 11.0267C25.4721 11.1787 25.3001 11.2547 25.1001 11.2547C24.8921 11.2547 24.7121 11.1787 24.5601 11.0267C24.4161 10.8827 24.3441 10.7067 24.3441 10.4987V3.70673L23.2041 4.71473C23.0521 4.84273 22.8881 4.90673 22.7121 4.90673C22.5041 4.90673 22.3241 4.83473 22.1721 4.69073C22.0281 4.54673 21.9561 4.37073 21.9561 4.16273C21.9561 4.05073 21.9801 3.94273 22.0281 3.83873C22.0761 3.73473 22.1401 3.65073 22.2201 3.58673L24.6441 1.42673C24.8201 1.27473 24.9921 1.19873 25.1601 1.19873C25.3521 1.19873 25.5121 1.27073 25.6401 1.41473C25.7761 1.55073 25.8441 1.73073 25.8441 1.95473V10.4987Z" fill="#2B2B2B"/>
</svg>
